<svg xmlns="http://www.w3.org/2000/svg" viewBox="0 0 377.12 255.53"><defs><style>.cls-1,.cls-2{fill:#0088c4;}.cls-2{isolation:isolate;font-size:27.7px;font-family:Ebrima;letter-spacing:0.2em;}.cls-3{fill:#0087c3;}</style></defs><g id="Layer_2" data-name="Layer 2"><g id="Layer_1-2" data-name="Layer 1"><g id="Layer_2-2" data-name="Layer 2"><g id="Layer_1-2-2" data-name="Layer 1-2"><path class="cls-1" d="M0,159.78H13.77c2.15,0,6.28,0,9.08,1.73A9.23,9.23,0,0,1,27,169.37a7.33,7.33,0,0,1-2.15,5.51,10.11,10.11,0,0,1-4.18,2.5v.1c5.61,1,7.81,5.1,7.81,9a9.48,9.48,0,0,1-5.41,8.67c-2.86,1.48-7.86,1.48-9.29,1.48H0Zm7.55,15h5.51c2.24,0,6.33,0,6.33-4.74,0-4.59-3.88-4.59-6.48-4.59H7.55Zm0,15.92h5.36c3.62,0,7.7,0,7.7-4.95,0-5.25-4.74-5.25-8.52-5.25H7.55Z"></path><path class="cls-1" d="M33.62,159.72H47.75c4.08-.05,8.22-.05,11.17,2.5a9.35,9.35,0,0,1,3.22,7.09c0,6.89-5.92,8.52-7.71,9,5.57.52,6,3.68,6.64,8.47A70.76,70.76,0,0,0,62.19,194a6.62,6.62,0,0,0,1.12,2.65H54.59c-.36-2-1.48-11.38-2-12.81-.72-2.09-2.65-2.09-4-2.09H41.68v14.9H33.62Zm7.81,16.13H47.8a6.48,6.48,0,0,0,4-1,5.13,5.13,0,0,0,2-4.29,4.6,4.6,0,0,0-1.93-4.13c-1.23-.87-2.71-.87-5.21-.87h-5.3Z"></path><path class="cls-1" d="M76.17,159.83v22.44c0,4,.31,9.08,8,9.08,1.27,0,5.1,0,7.14-3.21.77-1.12,1.17-2.55,1.17-6.27v-22h7.71v23c0,11-8.73,14.49-16.17,14.49-3.68,0-10.41-.81-13.88-6.37-1.79-2.81-1.89-5.67-1.89-9.08v-22Z"></path><path class="cls-1" d="M107.7,159.72h7.91v14.75h13.92V159.72h8v36.89h-7.9V180.44h-14v16.17H107.7Z"></path><path class="cls-1" d="M158.82,159.78h23.77v5.91H166.73v9.08h14.79v6.13H166.73v15.71h-7.91Z"></path><path class="cls-1" d="M186.73,159.62h7.9v37h-7.9Z"></path><path class="cls-1" d="M201.52,159.72H213l13.82,29v-29h7.35v36.89H223.25L209,166v30.61h-7.45Z"></path><path class="cls-1" d="M260.5,159.72l12.8,36.89h-8l-2.65-8H248.1l-2.75,8H237.8l13.31-36.89Zm.2,23L255.6,167l-5.46,15.71Z"></path><path class="cls-1" d="M278.05,159.72h11.43l13.82,29v-29h7.35v36.89H299.78L285.5,166v30.61h-7.45Z"></path><path class="cls-1" d="M338.35,171.76c-.15-1.27-.61-6.48-6-6.48-5.86,0-8.31,6.13-8.31,13.73,0,2.19,0,12.65,7.7,12.65,3.32,0,6.48-2.09,6.63-7h8.32c-.15,2.19-.36,5.61-3.32,8.67a14.47,14.47,0,0,1-10.76,4.14c-12.7,0-16.84-9.39-16.84-18.52,0-11.69,6.53-19.44,16.89-19.44,8.06,0,13.72,4.9,13.72,12.24Z"></path><path class="cls-1" d="M351.87,159.72h24.69v6H359.78v8.78h15.71v6H359.78v10h17.34v6.12H351.87Z"></path><path class="cls-1" d="M122.57,115.16c-.47-.41-.9-.82-1.35-1.23C121.66,114.35,122.12,114.75,122.57,115.16Z"></path><rect class="cls-1" x="183.49" y="125.12" width="30.31" height="5.11"></rect><rect class="cls-1" x="183.49" y="134.8" width="30.31" height="5.11"></rect><path class="cls-1" d="M208.75,144.48a10.11,10.11,0,0,1-20.21.64c0-.22,0-.43,0-.64"></path><path class="cls-1" d="M196.9,5.75a57.14,57.14,0,0,0-37.66,15.71V0H141.19V62.39h0a57.36,57.36,0,0,0,42,56,36.86,36.86,0,0,0-11.73-23.08c-.47-.45-1-.88-1.46-1.3h-.06a41.89,41.89,0,1,1,59.21-2,43.4,43.4,0,0,1-3.89,3.66v.14A36.75,36.75,0,0,0,214,118.31,57.36,57.36,0,0,0,196.9,5.75Z"></path><text class="cls-2" transform="translate(103.03 246.68)">የስኬት ጎዳና</text></g></g><path class="cls-3" d="M84.3,204.6h3.87c1.41,0,2.37.08,3.16.93a3.16,3.16,0,0,1,.85,2.24,3.06,3.06,0,0,1-.92,2.26c-.6.61-1.4,1-3.49,1H85.9v5.14H84.3Zm1.6,5.08h1.91c1,0,2.67-.08,2.67-2S89,205.9,88.14,205.9H85.9Z"></path><path class="cls-3" d="M98,204.6h1.72l4.67,11.56h-1.74l-1.25-3H96.05l-1.25,3H93.15Zm-1.45,7.25h4.37l-2.13-5.66Z"></path><path class="cls-3" d="M109.42,216.16V206h-3.87V204.6h9.33V206H111v10.2Z"></path><path class="cls-3" d="M119.85,204.6v5h5.49v-5h1.6v11.56h-1.6v-5.22h-5.49v5.22h-1.6V204.6Z"></path><path class="cls-3" d="M132.09,204.6l2.5,9.51,2.75-9.51h2l2.61,9.59,2.62-9.59h1.57l-3.43,11.56h-1.77l-2.67-9.88-2.87,9.88h-1.73l-3.28-11.56Z"></path><path class="cls-3" d="M152.48,204.6h1.71l4.67,11.56h-1.74l-1.25-3h-5.36l-1.25,3h-1.65ZM151,211.85h4.37l-2.13-5.66Z"></path><path class="cls-3" d="M163.66,211.61l-4.51-7h2l3.41,5.67L168,204.6h1.79l-4.51,7.09v4.47h-1.62Z"></path><path class="cls-3" d="M185.5,216.16V206h-3.87V204.6H191V206h-3.87v10.2Z"></path><path class="cls-3" d="M194.72,205.85a5.12,5.12,0,0,1,3.85-1.55c3.21,0,5.22,2,5.22,6,0,3.07-1.23,6.16-5.34,6.16-3.94,0-5.22-2.8-5.22-6A6.75,6.75,0,0,1,194.72,205.85Zm1.21,8.16a3.16,3.16,0,0,0,2.56,1.06,3.22,3.22,0,0,0,2.57-1.06,6.34,6.34,0,0,0,1-3.76c0-2.62-.87-4.61-3.51-4.61-2.93,0-3.68,2.36-3.68,4.72A5.82,5.82,0,0,0,195.93,214Z"></path><path class="cls-3" d="M221.76,212.78c0,.8.12,2.29,2.78,2.29,2.4,0,2.71-1.49,2.71-2.06,0-1.3-1-1.56-2.66-2a10.27,10.27,0,0,1-3.14-1,2.62,2.62,0,0,1-1.2-2.27c0-2.36,2.23-3.38,4.4-3.38a4.55,4.55,0,0,1,3.25,1.13,3,3,0,0,1,.71,2h-1.67c-.08-1.44-1.29-1.76-2.43-1.76-1.6,0-2.56.72-2.56,1.88s.67,1.37,2.08,1.71c2.75.7,3.06.77,3.73,1.21a2.67,2.67,0,0,1,1.15,2.31c0,2-1.6,3.6-4.56,3.6-.88,0-2.67-.14-3.59-1.31a3.66,3.66,0,0,1-.67-2.34Z"></path><path class="cls-3" d="M234.81,204.6v7.16A2.83,2.83,0,0,0,238,215c3.12,0,3.12-2.44,3.12-3.28V204.6h1.55v7.13A4.33,4.33,0,0,1,238,216.4a5,5,0,0,1-4.09-1.84,4.63,4.63,0,0,1-.67-2.92v-7Z"></path><path class="cls-3" d="M254.4,207.72a2.2,2.2,0,0,0-2.5-2c-2.78,0-3.28,2.85-3.28,4.77,0,2.18.62,4.53,3.27,4.53a2.48,2.48,0,0,0,1.87-.69,2.3,2.3,0,0,0,.56-1.21h1.76c-.24,2.27-2.34,3.21-4.32,3.21-4.07,0-4.85-3.58-4.85-5.82,0-2.43.94-6.07,5.06-6.07,1.63,0,3.93.66,4.14,3.28Z"></path><path class="cls-3" d="M266.93,207.72a2.2,2.2,0,0,0-2.5-2c-2.79,0-3.28,2.85-3.28,4.77,0,2.18.62,4.53,3.26,4.53a2.49,2.49,0,0,0,1.88-.69,2.3,2.3,0,0,0,.56-1.21h1.76c-.24,2.27-2.34,3.21-4.32,3.21-4.07,0-4.85-3.58-4.85-5.82,0-2.43.94-6.07,5.05-6.07,1.64,0,3.94.66,4.15,3.28Z"></path><path class="cls-3" d="M272.3,204.6h7.25V206H273.9v3.6h5.38v1.35H273.9v3.84h5.78v1.41H272.3Z"></path><path class="cls-3" d="M285.28,212.78c0,.8.12,2.29,2.78,2.29,2.4,0,2.71-1.49,2.71-2.06,0-1.3-1-1.56-2.66-2a10.27,10.27,0,0,1-3.14-1,2.62,2.62,0,0,1-1.2-2.27c0-2.36,2.23-3.38,4.4-3.38a4.55,4.55,0,0,1,3.25,1.13,3,3,0,0,1,.71,2h-1.67c-.08-1.44-1.3-1.76-2.43-1.76-1.6,0-2.56.72-2.56,1.88s.67,1.37,2.08,1.71c2.75.7,3.06.77,3.73,1.21a2.67,2.67,0,0,1,1.15,2.31c0,2-1.6,3.6-4.56,3.6-.88,0-2.67-.14-3.59-1.31a3.66,3.66,0,0,1-.67-2.34Z"></path><path class="cls-3" d="M297.8,212.78c0,.8.13,2.29,2.79,2.29,2.4,0,2.7-1.49,2.7-2.06,0-1.3-1-1.56-2.65-2a10.27,10.27,0,0,1-3.14-1,2.62,2.62,0,0,1-1.2-2.27c0-2.36,2.22-3.38,4.4-3.38a4.55,4.55,0,0,1,3.25,1.13,3,3,0,0,1,.71,2H303c-.08-1.44-1.3-1.76-2.43-1.76-1.6,0-2.56.72-2.56,1.88s.67,1.37,2.08,1.71c2.75.7,3.05.77,3.73,1.21a2.67,2.67,0,0,1,1.15,2.31c0,2-1.6,3.6-4.56,3.6-.88,0-2.68-.14-3.59-1.31a3.66,3.66,0,0,1-.67-2.34Z"></path></g></g></svg>